<?xml version="1.0" encoding="UTF-8"?>
<svg id="Layer_2" data-name="Layer 2" xmlns="http://www.w3.org/2000/svg" viewBox="0 0 1758.58 1651.75">
  <defs>
    <style>
      .cls-1 {
        fill: #fff;
      }
    </style>
  </defs>
  <g id="Layer_1-2" data-name="Layer 1">
    <g id="logo2">
      <g id="option2">
        <path id="a" class="cls-1" d="m0,1194.47c0,136.17,60.22,261.88,158.97,347.06,58.72,50.64,130.52,83.71,206.95,96.79l10.29,1.76c45.39,7.77,91.35,11.67,137.39,11.67h358.71c21.4-.01,40.4-11.01,51.4-29.41l147.01-255.14c22.9-39.74-5.79-89.37-51.65-89.37l-484.87.02v-.1s-3.03,0-3.03,0c-15.39,0-29.61-8.21-37.3-21.53l-188.98-327.16c-4.86-8.4-8.69-17.33-13.44-25.74-38.45-68.01-73.56-68.82-122.13-54.5h0c-17.28,5.87-23.81,10.27-33.07,19.33C48.76,953.83-.57,1071.5,0,1194.47Zm117.5,0l.6.6c0-75.57,24.72-148.35,70.67-207.95,3.69-4.78,11.12-4.05,13.83,1.34h0s0,0,0,0l207.61,360.49c10.4,18.4,30,29.4,51.4,29.4l473.03-.02c6.35,0,10.32,6.87,7.15,12.37l-79.89,138.61c-1.47,2.55-4.2,4.13-7.15,4.13h-398.03c-187.1.12-338.91-151.57-339.21-338.97h0Z"/>
        <path id="b" class="cls-1" d="m1110.08,61.4C992.15-6.68,853.17-17.4,730.03,25.54c-73.22,25.53-137.76,71.18-187.31,130.82l-6.67,8.03c-29.42,35.42-55.78,73.27-78.81,113.15l-179.35,310.65c-10.7,18.53-10.67,40.49-.24,59.21l147.44,254.89c22.96,39.7,80.29,39.68,103.22-.04l242.44-419.91.09.05,1.52-2.63c7.69-13.33,21.91-21.54,37.3-21.54l377.82-.06c9.71-.01,19.35,1.14,29.01,1.23,78.12.7,96.38-29.29,108.27-78.52h0c3.56-17.9,3.02-25.76-.2-38.31-30.45-118.61-107.69-220.17-214.47-281.16Zm-58.75,101.76l-.82.22c65.44,37.78,116.11,95.59,144.75,165.18,2.3,5.58-2.05,11.65-8.08,11.3h0s0,0,0,0l-416-.46c-21.13-.19-40.46,11.28-51.16,29.81l-236.51,409.65c-3.17,5.5-11.11,5.5-14.28,0l-80.09-138.49c-1.48-2.55-1.48-5.7,0-8.25l199.02-344.71c93.46-162.08,300.74-217.7,463.18-124.26h0Z"/>
        <path id="c" class="cls-1" d="m1530.17,1588.18c117.92-68.09,196.69-183.09,221.08-311.2,14.5-76.17,7.24-154.89-19.64-227.62l-3.62-9.79c-15.96-43.19-35.56-84.95-58.59-124.82l-179.36-310.65c-10.7-18.53-29.73-29.49-51.16-29.81l-294.46.25c-45.86.04-74.5,49.69-51.57,89.41l242.44,419.91-.09.05,1.52,2.63c7.69,13.33,7.7,29.74,0,43.07l-188.85,327.23c-4.84,8.41-10.67,16.19-15.57,24.51-39.67,67.31-22.82,98.11,13.86,133.02h0c13.72,12.03,20.8,15.49,33.28,18.98,117.95,32.93,244.52,16.82,350.73-45.16Zm-58.75-101.76l.22-.82c-65.44,37.78-140.84,52.77-215.42,42.77-5.99-.8-9.07-7.6-5.75-12.64h0s0,0,0,0l208.4-360.04c10.73-18.21,10.46-40.68-.24-59.21l-236.52-409.65c-3.17-5.5.79-12.37,7.14-12.37l159.98-.12c2.95,0,5.67,1.57,7.15,4.12l199.02,344.71c93.64,161.98,38.16,369.3-123.98,463.26h0Z"/>
      </g>
    </g>
  </g>
</svg>